<svg xmlns="http://www.w3.org/2000/svg" width="500" height="500" viewBox="0 0 500 500">
<g>
<path d="M 158.49 372.01 C158.21,372.48 149.09,372.90 138.24,372.95 C120.42,373.04 118.38,372.87 117.22,371.27 C116.29,369.99 115.79,369.84 115.39,370.75 C114.52,372.71 112.80,372.29 104.37,368.06 C90.86,361.30 81.23,350.46 75.90,336.00 L 73.50 329.50 L 73.22 258.84 C72.98,198.77 73.16,187.08 74.45,180.84 C78.85,159.59 95.04,142.49 115.00,138.01 C118.03,137.33 121.59,136.35 122.91,135.83 L 125.33 134.89 L 122.21 132.04 C118.24,128.42 117.39,125.09 119.42,121.15 C121.49,117.15 125.73,116.01 138.50,116.02 C150.32,116.03 153.00,116.59 153.00,119.05 C153.00,120.05 153.90,121.15 155.00,121.50 C157.85,122.40 157.60,127.35 154.50,131.40 C153.13,133.20 152.31,134.97 152.67,135.34 C153.67,136.33 181.52,136.13 184.20,135.11 C185.79,134.51 189.15,129.63 194.70,119.86 C199.19,111.96 204.36,104.08 206.18,102.34 C208.01,100.60 212.39,98.01 215.92,96.59 L 222.34 94.00 L 258.19 94.00 C277.90,94.00 294.81,94.41 295.76,94.91 C296.72,95.41 300.11,97.07 303.30,98.60 C309.67,101.65 313.13,106.06 322.46,123.00 C325.99,129.42 327.56,132.67 330.16,134.33 C332.84,136.03 336.60,136.02 344.72,136.01 C345.58,136.01 346.47,136.01 347.42,136.01 C367.34,136.02 374.44,137.12 384.00,141.71 C390.80,144.98 404.00,155.80 404.00,158.11 C404.00,158.54 405.29,160.83 406.86,163.20 C409.99,167.90 412.42,175.20 413.96,184.50 C415.52,194.00 415.17,308.00 413.57,308.61 C412.87,308.88 408.52,307.16 403.90,304.80 L 395.50 300.50 L 394.50 181.50 L 391.59 175.57 C389.99,172.30 386.83,167.78 384.57,165.51 C376.14,157.09 366.96,154.78 343.20,155.12 C330.76,155.29 326.74,155.01 323.86,153.77 C318.99,151.66 312.61,145.78 310.25,141.21 C305.22,131.48 298.47,120.23 296.17,117.74 C294.76,116.23 292.01,114.54 290.06,114.00 C285.31,112.68 229.58,112.71 224.81,114.03 C220.10,115.34 217.78,118.18 209.51,132.68 C201.48,146.76 197.30,151.45 191.07,153.36 C185.46,155.07 187.75,154.96 151.50,155.31 C122.98,155.59 121.21,155.72 115.72,157.89 C108.72,160.65 99.13,169.18 96.53,174.94 C95.52,177.17 94.09,179.00 93.35,179.00 C91.66,179.00 91.57,180.69 93.24,181.25 C94.22,181.57 94.22,182.22 93.24,184.38 C91.38,188.46 91.48,319.48 93.36,326.50 C96.27,337.44 100.98,343.72 110.40,349.26 L 117.50 353.43 L 131.21 353.83 C144.10,354.20 145.01,354.36 146.39,356.47 C147.20,357.71 148.49,359.35 149.25,360.11 C150.01,360.87 151.50,362.85 152.56,364.50 C153.62,366.15 155.51,368.32 156.75,369.33 C158.00,370.34 158.78,371.54 158.49,372.01 Z" fill="rgb(56,31,19)"/>
<path d="M 152.02 117.26 C154.10,117.91 155.37,118.82 156.02,120.04 C156.72,121.34 157.03,122.90 156.98,124.52 C156.88,123.03 156.23,121.89 155.00,121.50 C153.90,121.15 153.00,120.05 153.00,119.05 C153.00,118.28 152.74,117.70 152.02,117.26 ZM 98.21 172.08 C96.59,174.55 95.43,177.39 93.94,181.85 C93.86,181.55 93.62,181.37 93.24,181.25 C91.57,180.69 91.66,179.00 93.35,179.00 C94.09,179.00 95.52,177.17 96.53,174.94 C96.93,174.05 97.50,173.08 98.21,172.08 ZM 92.10 214.32 C92.05,224.05 92.04,237.02 92.04,254.50 C92.03,266.98 92.04,277.30 92.06,285.88 C91.83,263.05 91.84,235.12 92.10,214.32 ZM 124.66 372.90 C118.12,372.81 115.36,372.53 112.81,371.74 C114.33,372.10 114.96,371.71 115.39,370.75 C115.79,369.84 116.29,369.99 117.22,371.27 C117.97,372.31 119.10,372.75 124.66,372.90 ZM 117.29 157.29 C121.84,155.69 125.85,155.56 151.50,155.31 C132.75,155.49 123.44,155.71 117.29,157.29 ZM 108.41 370.03 C92.21,362.96 81.84,352.09 75.90,336.00 C81.23,350.46 90.86,361.30 104.37,368.06 C105.93,368.85 107.27,369.50 108.41,370.03 ZM 92.90 321.90 C93.13,324.46 93.42,326.40 93.78,328.02 C93.64,327.52 93.49,327.02 93.36,326.50 C93.19,325.88 93.04,324.29 92.90,321.90 ZM 95.87 333.78 C96.07,334.18 96.28,334.58 96.49,335.00 C97.47,336.89 98.45,338.53 99.51,340.00 C98.10,338.13 96.90,336.08 95.87,333.78 ZM 128.37 116.45 C130.98,116.14 134.31,116.01 138.60,116.01 C139.68,116.00 140.71,116.02 141.67,116.04 C140.70,116.03 139.64,116.02 138.50,116.02 C134.26,116.02 130.96,116.14 128.37,116.45 ZM 93.25 184.34 C93.14,184.87 93.04,185.46 92.95,186.13 C93.04,185.20 93.14,184.60 93.24,184.38 ZM 158.29 372.11 C158.40,372.08 158.47,372.05 158.49,372.01 C158.47,372.05 158.40,372.08 158.29,372.11 Z" fill="rgb(62,42,32)"/>
<path d="M 232.57 202.92 C222.78,205.84 219.00,206.74 219.00,206.15 C219.00,205.31 223.06,202.67 224.80,202.38 C225.51,202.26 227.61,201.01 229.46,199.60 C231.99,197.67 232.99,195.99 233.52,192.77 C233.91,190.42 235.28,187.38 236.57,186.00 C237.86,184.62 240.07,182.07 241.48,180.33 C244.01,177.20 255.81,170.00 258.41,170.00 C259.15,170.00 260.25,169.40 260.86,168.67 C262.24,167.01 260.44,164.35 257.50,163.69 C256.40,163.44 257.30,163.40 259.50,163.60 C273.00,164.81 274.22,167.86 264.46,176.03 C258.08,181.36 252.00,190.56 252.00,194.89 C252.00,195.81 250.65,197.37 249.00,198.34 C247.35,199.32 246.00,200.54 246.00,201.06 C246.00,201.58 243.67,202.00 240.82,202.00 C237.97,202.00 234.26,202.41 232.57,202.92 ZM 178.51 343.25 C176.56,345.31 174.87,346.98 174.74,346.96 C174.61,346.93 171.57,345.32 168.00,343.37 C164.43,341.42 159.36,338.69 156.74,337.30 C152.16,334.88 149.78,332.36 146.98,327.00 C145.73,324.62 145.76,324.57 147.59,325.98 C148.64,326.79 150.98,328.70 152.78,330.23 C157.50,334.20 159.71,333.85 162.12,328.75 C163.22,326.41 165.22,322.97 166.56,321.10 C169.18,317.46 169.57,314.64 168.03,310.58 C166.42,306.34 165.64,298.66 166.90,299.44 C167.51,299.81 168.00,300.78 168.00,301.59 C168.00,304.03 174.11,319.10 177.28,324.47 C178.90,327.22 180.40,330.38 180.60,331.49 L 180.69 331.98 C181.51,336.41 181.84,338.22 181.29,339.70 C180.88,340.77 180.01,341.66 178.51,343.25 ZM 181.64 232.68 C178.61,232.27 177.01,232.57 175.59,233.81 C174.13,235.09 173.86,235.14 174.50,234.00 C176.99,229.56 181.70,223.06 184.79,219.81 C187.92,216.51 188.82,216.12 193.21,216.15 C196.14,216.18 198.81,215.60 199.81,214.73 C200.74,213.92 202.18,213.26 203.00,213.25 C203.82,213.24 205.40,212.92 206.50,212.54 C207.75,212.10 207.38,212.68 205.50,214.09 C203.85,215.34 198.73,220.15 194.13,224.79 C185.86,233.14 185.72,233.23 181.64,232.68 Z" fill="rgb(215,143,104)"/>
<path d="M 394.32 406.20 C392.26,408.48 389.60,408.50 387.53,406.25 C379.57,397.63 371.98,390.84 369.50,390.12 C367.85,389.65 364.13,387.65 361.24,385.69 C357.99,383.48 354.16,381.85 351.24,381.43 C348.63,381.05 344.92,380.15 343.00,379.44 C334.17,376.15 309.80,375.82 299.00,378.85 C297.08,379.39 292.95,380.12 289.84,380.47 C286.73,380.83 282.47,381.99 280.38,383.06 C278.29,384.13 275.56,385.00 274.33,385.00 C273.09,385.00 269.82,385.89 267.07,386.97 C262.54,388.76 260.17,388.91 241.78,388.55 C226.74,388.26 220.47,387.76 217.50,386.62 C215.30,385.78 212.54,385.07 211.38,385.04 C210.21,385.02 207.28,383.92 204.88,382.60 C202.47,381.29 199.48,379.90 198.23,379.53 C196.98,379.16 193.15,377.07 189.73,374.90 C186.30,372.72 182.20,370.17 180.62,369.22 C179.04,368.27 172.05,361.88 165.10,355.00 C154.90,344.92 152.18,341.63 151.04,338.00 C150.27,335.52 149.72,333.16 149.82,332.75 C149.92,332.34 149.53,332.00 148.95,332.00 C147.19,332.00 143.00,326.84 142.96,324.60 C142.93,323.45 141.81,320.70 140.47,318.50 C137.25,313.24 136.00,310.29 136.00,307.97 C136.00,306.93 135.14,303.70 134.09,300.79 C133.04,297.88 131.88,293.33 131.52,290.68 C130.48,283.09 130.80,255.24 131.96,253.07 C132.53,252.00 133.00,249.93 133.00,248.45 C133.00,243.49 143.75,217.77 146.98,215.00 C148.91,213.34 154.00,205.34 154.00,203.96 C154.00,203.05 156.25,200.37 159.01,197.99 C161.76,195.62 163.81,193.47 163.55,193.22 C163.00,192.66 169.69,186.00 170.80,186.00 C172.31,186.00 182.24,179.10 183.66,177.07 C184.46,175.93 185.70,175.00 186.42,175.00 C187.14,175.00 188.86,174.11 190.23,173.03 C191.61,171.95 192.97,171.30 193.26,171.59 C193.54,171.88 196.19,170.93 199.14,169.49 C219.52,159.54 249.88,157.35 273.00,164.15 C279.18,165.96 293.09,172.13 297.36,174.95 C299.64,176.45 304.57,179.63 308.32,182.02 C312.07,184.41 315.74,187.52 316.48,188.93 C317.21,190.35 320.76,194.51 324.35,198.18 C327.95,201.85 331.80,206.65 332.92,208.84 C334.03,211.03 336.76,214.91 338.97,217.47 C341.19,220.03 343.00,222.74 343.00,223.49 C343.00,224.24 344.35,228.22 346.00,232.34 C347.65,236.46 349.00,241.19 349.00,242.86 C349.00,244.52 349.39,246.13 349.88,246.42 C352.07,247.78 353.19,257.32 353.08,273.71 C353.02,283.17 352.71,291.60 352.39,292.44 C351.40,295.01 345.48,298.11 343.18,297.26 C342.05,296.84 333.84,296.87 324.94,297.33 C313.61,297.91 308.43,297.83 307.67,297.07 C306.89,296.29 306.95,294.79 307.86,291.74 C309.83,285.13 311.38,276.84 311.35,273.00 C311.29,263.80 309.69,253.35 307.97,250.89 C306.96,249.45 305.82,246.57 305.43,244.48 C305.04,242.39 303.43,239.34 301.86,237.70 C300.29,236.05 299.00,234.31 299.00,233.84 C299.00,233.36 297.46,231.29 295.59,229.24 C293.71,227.18 290.74,223.81 288.98,221.75 C287.23,219.69 285.36,218.00 284.83,218.00 C284.30,218.00 281.90,216.65 279.50,215.00 C277.10,213.35 274.66,212.00 274.07,212.00 C273.48,212.00 273.00,211.61 273.00,211.13 C273.00,209.62 258.38,205.00 253.59,205.00 C250.92,205.00 249.00,204.54 249.00,203.90 C249.00,202.44 242.98,203.10 231.00,205.87 C217.30,209.04 208.43,213.75 200.50,222.05 C199.40,223.20 196.14,226.48 193.25,229.34 C190.36,232.20 188.00,235.13 188.00,235.86 C188.00,236.59 187.34,238.39 186.54,239.85 C183.63,245.15 181.21,251.60 180.48,255.99 C180.08,258.45 179.10,262.28 178.32,264.49 C176.83,268.71 177.38,280.50 179.12,281.57 C179.60,281.87 180.00,283.92 180.00,286.12 C180.00,292.58 186.36,304.54 194.55,313.50 C196.56,315.70 198.88,318.50 199.70,319.72 C200.52,320.95 203.63,323.18 206.60,324.68 C209.57,326.19 212.00,327.71 212.00,328.06 C212.00,328.41 215.26,330.21 219.25,332.05 C226.21,335.27 227.07,335.42 241.00,335.81 C254.04,336.17 256.10,335.99 261.50,334.02 C264.80,332.81 269.07,331.58 271.00,331.28 C272.92,330.97 275.57,330.01 276.90,329.15 C280.19,326.99 290.11,323.01 292.22,323.00 C293.16,323.00 295.41,322.38 297.22,321.62 C306.68,317.64 324.35,314.98 340.94,315.03 C352.96,315.07 370.77,318.32 380.57,322.27 C383.91,323.61 388.20,325.00 390.10,325.36 C392.00,325.72 394.32,326.89 395.25,327.98 C396.18,329.06 398.19,330.21 399.72,330.53 C402.83,331.19 402.76,331.15 409.58,336.00 C417.28,341.47 423.00,347.46 423.00,350.03 C423.00,351.29 420.81,355.54 418.14,359.48 C415.38,363.56 412.76,368.83 412.06,371.74 C411.39,374.54 409.98,377.62 408.92,378.57 C407.86,379.53 407.00,380.70 407.00,381.18 C407.00,382.68 396.04,404.29 394.32,406.20 ZM 232.57 202.92 C234.26,202.41 237.97,202.00 240.82,202.00 C243.67,202.00 246.00,201.58 246.00,201.06 C246.00,201.01 246.01,200.96 246.03,200.91 C246.39,201.34 250.15,202.22 254.71,202.92 C277.31,206.38 293.84,218.69 306.43,241.42 C309.43,246.84 312.49,258.18 313.46,267.50 C314.03,272.88 313.21,279.89 310.38,293.89 L 309.70 297.27 L 313.10 296.65 C314.97,296.31 323.64,295.73 332.37,295.36 L 348.23 294.69 L 349.74 291.10 C350.87,288.43 351.25,283.74 351.23,273.00 C351.21,257.24 349.34,246.80 344.27,234.04 C341.29,226.57 332.45,209.88 330.08,207.28 C329.20,206.30 327.44,204.15 326.19,202.50 C315.40,188.28 295.53,174.20 277.49,168.00 C276.95,167.81 276.45,167.64 276.00,167.48 C272.75,166.35 271.59,165.95 271.19,166.34 C270.97,166.55 270.98,167.00 270.99,167.70 C271.00,167.88 271.00,168.07 271.00,168.28 C271.00,169.86 269.00,172.23 264.46,176.03 C274.22,167.86 273.00,164.81 259.50,163.60 C257.30,163.40 256.40,163.44 257.50,163.69 C258.98,164.02 260.17,164.86 260.81,165.82 C257.15,162.37 239.36,161.44 221.44,164.51 C212.44,166.05 192.97,174.36 183.38,180.76 C158.61,197.28 140.80,223.54 134.97,252.16 C129.03,281.30 136.51,316.97 151.03,328.75 C153.58,330.82 156.39,332.55 157.74,332.93 C156.41,332.87 154.84,331.96 152.78,330.23 C150.98,328.70 148.64,326.79 147.59,325.98 C145.76,324.57 145.73,324.62 146.98,327.00 C149.31,331.47 151.35,333.96 154.62,336.07 L 154.54 336.02 C150.39,333.69 150.43,333.79 158.23,344.19 C171.23,361.53 191.82,375.86 213.00,382.30 C227.03,386.56 232.83,387.30 247.74,386.73 C261.16,386.21 271.02,384.34 285.00,379.66 C301.55,374.12 329.26,373.16 346.70,377.53 C364.37,381.95 377.84,390.21 387.99,402.84 C389.83,405.13 391.46,407.00 391.62,407.00 C391.85,407.00 414.67,360.99 419.30,351.21 C420.55,348.57 419.77,347.68 409.16,339.67 C398.70,331.77 393.38,329.19 374.50,322.87 C355.57,316.53 327.31,316.33 303.92,322.38 C296.45,324.31 286.32,327.65 281.42,329.80 C263.76,337.53 256.85,339.30 244.04,339.35 C233.56,339.39 231.69,339.10 223.75,336.25 C213.24,332.48 210.35,330.93 202.47,324.84 C192.02,316.76 183.44,304.25 178.78,290.26 C175.58,280.68 175.62,261.52 178.86,252.00 C181.43,244.44 185.70,235.26 187.83,232.75 C188.70,231.72 188.86,231.00 188.21,231.00 C188.00,231.00 187.77,231.06 187.54,231.17 C189.00,229.96 190.97,227.98 194.13,224.79 C198.73,220.15 203.85,215.34 205.50,214.09 C206.96,212.99 207.51,212.40 207.10,212.39 C211.88,210.28 216.28,207.88 219.09,205.89 C219.03,205.99 219.00,206.07 219.00,206.15 C219.00,206.74 222.78,205.84 232.57,202.92 ZM 229.50 362.97 C225.10,361.40 220.54,360.09 219.37,360.06 C218.20,360.03 216.63,359.25 215.87,358.34 C215.12,357.43 211.95,355.48 208.84,354.00 C202.60,351.05 194.00,344.22 194.00,342.23 C194.00,341.53 192.89,340.45 191.52,339.83 C189.81,339.05 189.11,337.99 189.24,336.39 C189.42,334.24 189.55,334.19 191.21,335.69 C192.20,336.58 193.00,337.84 193.00,338.50 C193.00,339.15 194.69,340.54 196.75,341.58 C198.81,342.62 201.62,344.41 203.00,345.55 C206.59,348.52 220.55,354.74 227.00,356.23 C235.32,358.15 254.77,357.74 261.34,355.51 C264.30,354.50 267.41,353.94 268.24,354.26 C269.76,354.84 271.10,361.25 270.05,362.89 C269.11,364.36 253.81,365.84 248.00,365.02 C244.98,364.60 241.74,364.64 240.82,365.13 C240.29,365.40 239.91,365.60 239.50,365.72 C238.21,366.08 236.67,365.53 229.96,363.14 ZM 354.76 351.03 C353.59,354.77 353.04,356.83 351.70,357.83 C350.08,359.05 347.29,358.71 340.82,357.93 C340.40,357.88 339.96,357.83 339.50,357.77 C333.44,357.05 330.82,356.94 329.79,355.60 C329.01,354.59 329.15,352.87 329.41,349.65 C329.46,349.08 329.51,348.45 329.56,347.77 C329.89,343.22 330.34,338.94 330.55,338.25 C330.97,336.88 342.55,336.65 351.50,337.84 C355.90,338.42 356.54,338.81 356.80,341.03 C356.96,342.43 356.04,346.93 354.76,351.03 ZM 390.20 367.25 C388.30,370.96 386.25,373.98 385.63,373.96 C384.70,373.92 375.81,369.69 369.00,366.04 C367.14,365.05 367.43,360.06 369.86,351.00 C372.07,342.77 372.14,342.77 386.59,350.36 C390.67,352.51 393.23,355.43 393.46,358.23 C393.56,359.48 392.10,363.54 390.20,367.25 ZM 223.63 301.29 C226.75,304.41 227.02,305.00 225.35,305.00 C223.35,305.00 220.11,301.93 218.07,298.12 C217.37,296.82 216.89,286.06 216.74,268.29 C216.46,235.33 216.53,234.98 224.70,231.37 C231.39,228.41 232.86,228.41 237.25,231.40 C239.19,232.71 242.45,234.39 244.49,235.13 C246.52,235.87 249.83,237.88 251.84,239.59 C257.81,244.69 266.90,250.11 270.44,250.68 C273.42,251.17 279.00,254.84 279.00,256.32 C279.00,256.64 280.38,258.94 282.06,261.44 C285.48,266.51 285.52,270.70 282.18,276.45 C280.42,279.48 271.94,284.93 268.93,284.98 C268.06,284.99 265.28,286.99 262.74,289.42 C258.35,293.63 255.06,294.69 254.22,292.16 C254.01,291.52 254.33,291.00 254.94,291.00 C255.55,291.00 258.62,289.39 261.77,287.42 C264.92,285.46 269.96,282.42 272.97,280.67 C279.96,276.61 283.37,271.79 282.61,267.02 C281.72,261.49 279.16,259.07 265.42,250.80 C258.32,246.52 251.82,242.58 251.00,242.05 C250.18,241.52 245.96,238.99 241.63,236.44 C234.62,232.31 233.31,231.88 229.63,232.44 C227.36,232.79 224.38,233.93 223.00,234.98 L 220.50 236.88 L 220.21 267.23 L 219.92 297.59 ZM 302.50 357.99 C298.10,358.65 293.26,359.42 291.75,359.72 L 289.00 360.25 L 289.00 352.37 C289.00,344.71 289.08,344.46 291.75,343.38 C296.18,341.59 302.08,340.19 308.29,339.45 L 314.08 338.76 L 313.79 347.02 C313.58,353.15 313.11,355.48 312.00,356.04 C311.17,356.46 306.90,357.34 302.50,357.99 ZM 345.89 355.56 C346.76,356.42 349.62,355.98 350.80,354.80 C351.46,354.14 352.00,352.71 352.00,351.62 C352.00,350.53 352.54,348.15 353.20,346.32 C354.76,342.02 353.68,340.92 346.77,339.76 C336.28,337.99 334.82,338.19 332.79,341.64 C331.27,344.23 331.11,345.53 331.90,349.04 C333.05,354.18 333.62,354.58 340.25,354.88 C343.11,355.01 345.65,355.32 345.89,355.56 ZM 380.13 368.46 C381.74,369.81 383.70,370.67 384.49,370.36 C386.10,369.75 391.00,361.50 391.00,359.42 C391.00,356.67 388.61,353.00 386.82,353.00 C385.80,353.00 383.14,351.85 380.91,350.44 C375.96,347.32 373.96,347.58 372.70,351.50 C372.17,353.15 371.08,355.26 370.28,356.18 C369.39,357.20 369.08,358.69 369.49,359.96 C370.32,362.57 373.90,366.00 375.79,366.00 C376.57,366.00 378.53,367.11 380.13,368.46 ZM 293.25 355.37 C295.70,356.43 306.52,354.84 309.00,353.06 C311.14,351.52 311.45,350.63 311.15,346.88 C310.95,344.47 310.57,342.13 310.29,341.68 C309.58,340.51 301.80,341.95 299.92,343.61 C299.05,344.37 297.63,345.00 296.75,345.00 C293.02,345.00 292.00,346.18 292.00,350.52 C292.00,353.02 292.53,355.06 293.25,355.37 ZM 242.51 301.54 C238.83,304.73 235.00,306.09 235.00,304.21 C235.00,303.77 238.04,301.66 241.75,299.52 C245.46,297.37 249.62,294.91 251.00,294.06 L 253.50 292.50 L 251.89 295.00 C251.00,296.38 249.42,297.63 248.39,297.79 C247.35,297.95 244.70,299.64 242.51,301.54 ZM 0.00 0.00 L 422.86 0.00 L 250.01 0.01 L 0.02 0.01 L 0.02 250.01 L 0.01 500.00 L 0.00 500.00 ZM 202.82 213.26 C201.98,213.35 200.68,213.98 199.81,214.73 C199.38,215.10 198.64,215.42 197.71,215.67 C198.65,215.41 199.40,215.05 199.89,214.60 C200.86,213.72 202.07,213.01 202.58,213.02 C202.80,213.02 202.87,213.11 202.82,213.26 ZM 186.60 231.88 C186.53,231.96 186.48,232.04 186.43,232.11 C186.19,232.50 185.49,232.74 184.48,232.81 C185.16,232.70 185.81,232.43 186.60,231.88 ZM 222.59 203.26 C223.37,202.79 224.10,202.46 224.56,202.39 C225.41,202.26 227.61,201.01 229.46,199.60 C227.61,201.01 225.51,202.26 224.80,202.38 C224.24,202.47 223.43,202.82 222.59,203.26 ZM 174.75 346.95 C174.98,346.87 176.61,345.26 178.49,343.27 L 174.93 347.05 Z" fill="rgb(253,240,223)"/>
<path d="M 179.51 225.00 C179.04,225.82 180.77,224.16 183.36,221.31 C187.87,216.35 188.31,216.12 193.11,216.15 C193.50,216.16 193.88,216.15 194.25,216.14 C193.91,216.15 193.56,216.16 193.21,216.15 C193.18,216.15 193.14,216.15 193.11,216.15 C188.80,216.13 187.89,216.54 184.79,219.81 C181.70,223.06 176.99,229.56 174.50,234.00 C173.86,235.14 174.13,235.09 175.59,233.81 C175.78,233.65 175.97,233.50 176.17,233.37 C176.03,233.49 175.89,233.63 175.76,233.79 C174.45,235.29 168.52,246.50 169.03,246.50 C169.14,246.50 168.46,248.98 167.53,252.00 C166.60,255.02 165.59,262.47 165.29,268.55 C164.82,277.92 164.99,279.84 166.37,281.23 C167.27,282.12 168.00,283.70 168.00,284.74 C168.00,288.58 172.02,301.80 175.54,309.52 C180.35,320.07 187.76,329.89 196.67,337.48 C205.08,344.66 212.26,348.68 223.50,352.50 C230.40,354.84 233.09,355.21 243.00,355.20 C250.53,355.19 256.75,354.60 261.00,353.49 C272.36,350.53 272.45,350.56 272.80,357.40 C272.97,360.64 272.70,363.70 272.20,364.20 C270.28,366.12 259.06,367.93 248.83,367.96 C237.94,368.00 229.99,366.83 224.35,364.37 C222.62,363.62 220.90,363.00 220.54,363.00 C218.87,363.00 209.86,358.34 203.86,354.38 C197.05,349.88 186.60,339.51 183.38,334.06 C182.25,332.15 181.03,331.01 180.47,331.00 C180.03,329.62 178.70,326.89 177.28,324.47 C174.11,319.10 168.00,304.03 168.00,301.59 C168.00,300.78 167.51,299.81 166.90,299.44 C166.66,299.29 166.49,299.45 166.39,299.84 C165.80,289.09 164.66,280.00 163.88,280.00 C163.43,280.00 161.82,282.53 160.31,285.62 C158.80,288.70 156.97,291.46 156.25,291.73 C155.54,292.01 153.77,294.24 152.33,296.69 C149.98,300.71 149.78,301.85 150.27,308.34 C150.85,316.05 149.51,320.11 147.17,317.77 C146.52,317.12 146.00,316.19 146.00,315.69 C146.00,315.20 144.95,313.96 143.66,312.95 C141.22,311.03 138.23,302.44 135.56,289.65 C134.52,284.65 133.65,281.88 133.24,282.04 C132.51,272.10 133.01,261.77 134.97,252.16 C140.80,223.54 158.61,197.28 183.38,180.76 C189.96,176.37 201.18,171.09 210.49,167.70 C208.97,168.46 208.94,169.00 211.11,169.00 C214.30,169.00 217.48,171.29 216.81,173.11 C216.53,173.87 216.65,177.79 217.09,181.80 L 217.89 189.11 L 213.81 192.80 C211.57,194.84 207.21,198.12 204.12,200.09 C194.49,206.24 184.43,216.43 179.51,225.00 ZM 223.63 301.29 L 219.92 297.59 L 220.21 267.23 L 220.50 236.88 L 223.00 234.98 C224.38,233.93 227.36,232.79 229.63,232.44 C233.31,231.88 234.62,232.31 241.63,236.44 C245.96,238.99 250.18,241.52 251.00,242.05 C251.82,242.58 258.32,246.52 265.42,250.80 C279.16,259.07 281.72,261.49 282.61,267.02 C283.37,271.79 279.96,276.61 272.97,280.67 C269.96,282.42 264.92,285.46 261.77,287.42 C258.62,289.39 255.55,291.00 254.94,291.00 C254.33,291.00 254.01,291.52 254.22,292.16 C254.33,292.50 254.49,292.77 254.68,292.98 C254.57,292.90 254.47,292.80 254.37,292.70 C254.07,292.40 253.32,292.97 252.52,294.01 L 253.50 292.50 L 251.00 294.06 C249.62,294.91 245.46,297.37 241.75,299.52 C238.04,301.66 235.00,303.77 235.00,304.21 C235.00,304.28 235.01,304.35 235.02,304.42 C233.93,304.47 232.63,304.49 231.01,304.50 C229.04,304.52 227.53,304.51 226.34,304.45 C226.18,303.94 225.32,302.99 223.63,301.29 ZM 229.50 362.97 L 229.96 363.14 C236.67,365.53 238.21,366.08 239.50,365.72 C239.91,365.60 240.29,365.40 240.82,365.13 C241.74,364.64 244.98,364.60 248.00,365.02 C253.81,365.84 269.11,364.36 270.05,362.89 C271.10,361.25 269.76,354.84 268.24,354.26 C267.41,353.94 264.30,354.50 261.34,355.51 C254.77,357.74 235.32,358.15 227.00,356.23 C220.55,354.74 206.59,348.52 203.00,345.55 C201.62,344.41 198.81,342.62 196.75,341.58 C194.69,340.54 193.00,339.15 193.00,338.50 C193.00,337.84 192.20,336.58 191.21,335.69 C189.55,334.19 189.42,334.24 189.24,336.39 C189.11,337.99 189.81,339.05 191.52,339.83 C192.89,340.45 194.00,341.53 194.00,342.23 C194.00,344.22 202.60,351.05 208.84,354.00 C211.95,355.48 215.12,357.43 215.87,358.34 C216.63,359.25 218.20,360.03 219.37,360.06 C220.54,360.09 225.10,361.40 229.50,362.97 ZM 254.83 163.57 C250.02,162.79 242.98,162.53 235.90,162.86 C243.43,162.42 250.16,162.70 254.83,163.57 ZM 217.41 293.21 C216.94,288.69 216.85,281.38 216.74,268.29 C216.83,279.71 217.07,288.23 217.41,293.21 ZM 135.38 297.19 C136.25,300.93 137.24,304.61 138.10,307.13 C139.12,310.10 140.11,312.70 141.12,314.99 C138.70,309.79 136.76,303.73 135.38,297.19 ZM 245.92 298.99 C246.97,298.32 247.87,297.87 248.39,297.79 C249.28,297.65 250.59,296.69 251.49,295.54 C250.50,296.94 249.13,298.02 248.26,298.03 C247.78,298.04 246.92,298.41 245.92,298.99 ZM 181.09 334.17 C181.66,335.81 181.82,337.14 181.55,338.42 C181.61,337.42 181.44,336.13 181.09,334.17 ZM 255.97 293.52 C257.52,293.55 259.90,292.15 262.74,289.42 C259.65,292.39 257.55,293.69 255.97,293.52 ZM 167.41 308.64 C167.60,309.33 167.81,309.99 168.03,310.58 C168.86,312.76 169.13,314.58 168.80,316.36 C169.13,314.53 168.81,312.65 167.89,310.32 C167.73,309.91 167.56,309.33 167.41,308.64 ZM 222.27 303.48 C221.84,303.19 221.47,302.83 221.07,302.37 C220.88,302.15 220.70,301.94 220.53,301.73 C221.10,302.40 221.69,302.99 222.27,303.48 ZM 261.14 166.44 C261.41,167.11 261.41,167.81 261.05,168.40 C261.33,167.81 261.38,167.11 261.14,166.44 ZM 184.47 232.81 L 184.48 232.81 C185.49,232.74 186.19,232.50 186.43,232.12 C186.18,232.51 185.50,232.74 184.47,232.81 ZM 220.52 164.69 C220.19,164.76 219.86,164.83 219.53,164.90 C219.87,164.82 220.20,164.75 220.52,164.69 ZM 197.68 215.67 C197.80,215.64 197.92,215.60 198.04,215.57 C197.93,215.60 197.82,215.63 197.71,215.67 ZM 186.60 231.88 L 186.60 231.88 C186.54,231.96 186.48,232.03 186.43,232.11 C186.48,232.04 186.53,231.96 186.60,231.88 ZM 187.54 231.17 C187.65,231.11 187.77,231.07 187.88,231.04 C187.77,231.07 187.65,231.11 187.54,231.17 Z" fill="rgb(206,99,62)"/>
<path d="M 202.82 213.26 C202.87,213.11 202.80,213.02 202.58,213.02 C202.07,213.01 200.86,213.72 199.89,214.60 C199.46,214.99 198.83,215.32 198.04,215.57 L 198.04 215.57 C197.92,215.60 197.80,215.64 197.68,215.67 C196.70,215.92 195.52,216.09 194.25,216.14 L 194.25 216.14 C193.88,216.15 193.50,216.16 193.11,216.15 C188.31,216.12 187.87,216.35 183.36,221.31 C180.77,224.16 179.04,225.82 179.51,225.00 C184.43,216.43 194.49,206.24 204.12,200.09 C207.21,198.12 211.57,194.84 213.81,192.80 L 217.89 189.11 L 217.09 181.80 C216.65,177.79 216.53,173.87 216.81,173.11 C217.48,171.29 214.30,169.00 211.11,169.00 C208.94,169.00 208.97,168.46 210.49,167.70 C213.86,166.47 216.98,165.50 219.53,164.90 C219.86,164.83 220.19,164.76 220.52,164.69 L 220.52 164.69 C220.84,164.62 221.15,164.56 221.44,164.51 C226.37,163.67 231.28,163.13 235.90,162.86 C242.98,162.53 250.02,162.79 254.83,163.57 C257.71,164.11 259.80,164.87 260.81,165.82 C260.95,166.02 261.06,166.23 261.14,166.44 C261.38,167.11 261.33,167.81 261.05,168.40 C261.00,168.49 260.93,168.58 260.86,168.67 C260.25,169.40 259.15,170.00 258.41,170.00 C255.81,170.00 244.01,177.20 241.48,180.33 C240.07,182.07 237.86,184.62 236.57,186.00 C235.28,187.38 233.91,190.42 233.52,192.77 C232.99,195.99 231.99,197.67 229.46,199.60 C227.61,201.01 225.41,202.26 224.56,202.39 C224.10,202.46 223.37,202.79 222.59,203.26 C221.08,204.07 219.48,205.23 219.09,205.89 C216.28,207.88 211.88,210.28 207.10,212.39 C206.98,212.39 206.78,212.44 206.50,212.54 C205.40,212.92 203.82,213.24 203.00,213.25 C202.94,213.25 202.88,213.26 202.82,213.26 ZM 167.41 308.64 C167.56,309.33 167.73,309.91 167.89,310.32 C168.81,312.64 169.13,314.53 168.80,316.36 L 168.80 316.36 C168.51,317.90 167.77,319.41 166.56,321.10 C165.22,322.97 163.22,326.41 162.12,328.75 C160.76,331.63 159.46,333.00 157.74,332.93 C156.39,332.55 153.58,330.82 151.03,328.75 C147.20,325.64 143.86,320.87 141.12,314.99 C140.11,312.70 139.12,310.10 138.10,307.13 C137.24,304.61 136.25,300.93 135.38,297.19 C134.35,292.35 133.63,287.25 133.24,282.04 C133.65,281.88 134.52,284.65 135.56,289.65 C138.23,302.44 141.22,311.03 143.66,312.95 C144.95,313.96 146.00,315.20 146.00,315.69 C146.00,316.19 146.52,317.12 147.17,317.77 C149.51,320.11 150.85,316.05 150.27,308.34 C149.78,301.85 149.98,300.71 152.33,296.69 C153.77,294.24 155.54,292.01 156.25,291.73 C156.97,291.46 158.80,288.70 160.31,285.62 C161.82,282.53 163.43,280.00 163.88,280.00 C164.66,280.00 165.80,289.09 166.39,299.84 C166.04,301.19 166.50,305.31 167.41,308.64 Z" fill="rgb(213,119,80)"/>
<path d="M 178.51 343.25 C178.54,343.22 178.57,343.19 178.60,343.15 C180.04,341.62 180.89,340.75 181.29,339.70 C181.43,339.31 181.52,338.90 181.55,338.42 C181.82,337.14 181.66,335.81 181.09,334.17 C180.97,333.52 180.84,332.79 180.69,331.98 L 180.60 331.49 C180.57,331.35 180.53,331.19 180.47,331.00 C181.03,331.01 182.25,332.15 183.38,334.06 C186.60,339.51 197.05,349.88 203.86,354.38 C209.86,358.34 218.87,363.00 220.54,363.00 C220.90,363.00 222.62,363.62 224.35,364.37 C229.99,366.83 237.94,368.00 248.83,367.96 C259.06,367.93 270.28,366.12 272.20,364.20 C272.70,363.70 272.97,360.64 272.80,357.40 C272.45,350.56 272.36,350.53 261.00,353.49 C256.75,354.60 250.53,355.19 243.00,355.20 C233.09,355.21 230.40,354.84 223.50,352.50 C218.48,350.79 214.27,349.05 210.40,347.00 C210.41,347.00 210.42,347.00 210.42,347.00 C212.35,347.00 205.63,341.08 203.06,340.51 C201.59,340.19 197.27,337.20 193.45,333.87 L 189.02 330.02 C186.22,326.89 183.65,323.55 181.35,320.04 C181.60,320.13 181.76,319.94 181.85,319.50 C182.04,318.53 180.97,316.56 179.47,315.12 L 177.21 312.96 C176.63,311.82 176.07,310.68 175.54,309.52 C174.81,307.91 174.05,306.06 173.31,304.10 C173.62,304.68 173.87,305.00 174.06,305.00 C175.26,305.00 174.31,300.93 171.86,295.50 C170.02,291.45 169.58,283.67 170.92,279.00 L 171.64 276.50 L 173.18 279.50 C174.98,283.01 176.02,286.96 176.57,292.43 C176.82,294.86 177.92,297.35 179.48,298.98 C180.87,300.43 182.00,302.16 182.00,302.82 C182.00,304.15 186.02,310.84 188.17,313.09 C188.92,313.87 190.08,315.75 190.75,317.27 C191.42,318.79 193.11,320.47 194.49,321.00 C195.87,321.52 197.00,322.38 197.00,322.91 C197.00,323.43 197.82,324.13 198.82,324.44 C199.83,324.76 201.51,325.82 202.57,326.80 C203.63,327.78 207.20,330.31 210.50,332.43 C213.80,334.54 217.84,337.20 219.47,338.33 C221.10,339.46 224.70,340.94 227.47,341.61 C230.24,342.28 233.85,342.86 235.50,342.89 C239.22,342.97 255.81,340.52 256.55,339.78 C256.82,339.51 252.36,339.31 246.37,339.32 C253.38,339.15 258.76,338.33 265.73,336.03 C263.02,337.15 261.54,337.93 262.22,337.95 C264.19,338.01 277.90,333.66 281.04,331.98 C282.19,331.36 285.24,330.48 287.82,330.01 C290.39,329.55 294.30,328.53 296.50,327.75 C301.17,326.09 335.36,325.96 336.99,327.59 C338.29,328.89 333.53,334.00 331.02,334.00 C329.97,334.00 328.83,334.47 328.47,335.04 C327.31,336.93 325.82,357.22 326.78,358.18 C327.28,358.68 330.80,359.48 334.59,359.97 C338.39,360.45 343.45,361.43 345.84,362.15 C349.92,363.38 350.47,363.30 355.33,360.71 C358.68,358.92 360.62,358.36 360.87,359.10 C361.08,359.73 362.09,361.09 363.12,362.12 C365.71,364.71 366.86,364.48 367.55,361.25 C367.67,360.68 367.89,359.72 368.17,358.52 C367.47,362.87 367.74,365.37 369.00,366.04 C375.81,369.69 384.70,373.92 385.63,373.96 C386.25,373.98 388.30,370.96 390.20,367.25 C391.58,364.55 392.73,361.67 393.21,359.82 C393.34,359.85 393.55,359.78 393.83,359.61 C396.47,357.97 394.81,354.52 388.39,348.29 C382.20,342.27 381.90,341.79 383.64,340.47 C384.67,339.70 386.29,339.05 387.25,339.03 C389.42,338.99 389.49,337.14 387.44,334.22 C385.95,332.10 386.00,332.00 388.47,332.00 C389.90,332.00 393.80,332.92 397.15,334.05 C400.50,335.18 403.40,335.93 403.60,335.73 C403.62,335.71 403.61,335.69 403.58,335.65 C405.34,336.84 407.15,338.15 409.16,339.67 C419.77,347.68 420.55,348.57 419.30,351.21 C415.54,359.17 399.72,391.11 393.84,402.74 C393.58,402.44 392.80,402.59 391.51,403.18 C390.05,403.84 389.52,404.28 389.70,404.91 C389.18,404.30 388.59,403.59 387.99,402.84 C377.84,390.21 364.37,381.95 346.70,377.53 C338.48,375.47 327.98,374.59 317.44,374.82 C326.97,374.45 336.05,374.99 342.95,376.56 C346.91,377.46 350.35,377.98 350.60,377.73 C351.49,376.85 339.00,372.77 337.01,373.29 C335.90,373.58 335.25,373.41 335.56,372.91 C336.25,371.78 333.69,371.64 318.50,371.92 C307.46,372.13 295.17,374.21 288.50,377.00 C287.40,377.46 284.45,378.30 281.95,378.88 C279.45,379.46 275.85,380.60 273.95,381.42 C268.33,383.86 273.57,383.32 282.03,380.58 C282.85,380.32 283.70,380.06 284.56,379.81 C270.82,384.38 261.02,386.22 247.74,386.73 C232.83,387.30 227.03,386.56 213.00,382.30 C210.69,381.60 208.40,380.80 206.11,379.92 C206.79,379.98 206.92,379.67 206.50,379.00 C206.16,378.45 205.34,378.00 204.69,378.00 C204.03,378.00 201.93,376.05 200.02,373.66 C198.11,371.28 194.74,367.93 192.52,366.22 C190.31,364.51 184.92,359.91 180.55,356.00 C176.17,352.08 168.49,346.46 163.46,343.50 C158.44,340.55 153.56,337.09 152.63,335.81 C152.30,335.37 152.03,335.03 151.85,334.82 C152.07,334.65 153.03,335.17 154.54,336.02 L 154.62 336.07 C155.27,336.49 155.98,336.90 156.74,337.30 C159.36,338.69 164.43,341.42 168.00,343.37 C171.57,345.32 174.61,346.93 174.74,346.96 C174.74,346.96 174.75,346.96 174.75,346.95 L 174.93 347.05 L 178.49 343.27 C178.49,343.27 178.50,343.26 178.51,343.25 ZM 332.36 216.54 C334.69,218.17 336.00,218.41 336.00,217.20 C336.00,217.14 335.98,217.07 335.94,216.96 C339.12,222.82 342.61,229.87 344.27,234.04 C349.34,246.80 351.21,257.24 351.23,273.00 C351.25,283.74 350.87,288.43 349.74,291.10 L 348.23 294.69 L 332.37 295.36 C327.39,295.57 322.43,295.85 318.74,296.11 C327.03,295.14 332.52,294.25 330.86,294.12 C328.32,293.93 327.92,291.50 329.20,284.01 C330.92,274.02 328.43,260.69 322.57,248.53 C317.48,237.97 313.10,232.96 303.49,226.74 C299.64,224.26 295.65,221.28 294.62,220.13 C293.58,218.99 292.31,218.31 291.80,218.62 C291.29,218.94 289.90,218.36 288.70,217.35 C287.51,216.33 289.10,218.32 292.23,221.77 C292.93,222.54 293.61,223.30 294.27,224.06 C283.61,212.23 270.68,205.37 254.71,202.92 C250.15,202.22 246.39,201.34 246.03,200.91 C246.23,200.33 247.49,199.23 249.00,198.34 C250.65,197.37 252.00,195.81 252.00,194.89 C252.00,190.56 258.08,181.36 264.46,176.03 C269.00,172.23 271.00,169.86 271.00,168.28 C271.00,168.07 271.00,167.88 270.99,167.70 C270.98,167.00 270.97,166.55 271.19,166.34 C271.59,165.95 272.75,166.35 276.00,167.48 L 276.36 167.61 C273.20,166.62 273.08,167.16 273.57,169.75 C274.00,171.99 273.38,173.19 270.19,176.24 C268.05,178.29 264.81,182.75 263.00,186.15 C259.86,192.05 259.79,192.38 261.56,193.67 C264.24,195.63 269.81,196.99 275.16,196.99 C281.92,197.00 293.24,199.41 303.01,202.91 C310.48,205.59 317.98,207.53 324.50,208.46 C325.60,208.62 326.78,208.80 327.13,208.87 C327.47,208.94 328.32,210.37 329.02,212.04 C329.71,213.71 331.21,215.74 332.36,216.54 ZM 298.01 358.68 L 292.50 359.82 L 300.00 359.81 C308.53,359.79 315.66,357.66 316.54,354.86 C316.87,353.82 316.63,351.42 316.01,349.53 C315.16,346.95 315.17,345.56 316.04,343.92 C316.96,342.21 316.92,341.56 315.85,340.89 C315.11,340.42 314.89,340.02 315.37,340.02 C317.09,339.99 313.87,337.18 311.42,336.57 C309.83,336.17 308.38,336.48 307.46,337.40 C305.75,339.11 305.59,339.65 307.68,339.52 C301.70,340.28 296.03,341.65 291.75,343.38 C289.08,344.46 289.00,344.71 289.00,352.37 L 289.00 360.25 L 291.75 359.72 C292.75,359.52 295.20,359.12 298.01,358.68 ZM 181.64 232.68 C182.81,232.84 183.66,232.94 184.47,232.81 C185.50,232.74 186.18,232.51 186.43,232.12 L 186.43 232.11 C186.48,232.03 186.54,231.96 186.60,231.88 C186.89,231.68 187.20,231.45 187.54,231.17 C187.65,231.11 187.77,231.07 187.88,231.04 L 187.88 231.04 C187.99,231.02 188.10,231.00 188.20,231.00 L 188.21 231.00 C188.86,231.00 188.70,231.72 187.83,232.75 C186.98,233.75 185.79,235.82 184.50,238.42 C185.14,236.99 185.42,236.00 185.14,236.00 C182.99,236.00 180.11,239.49 179.16,243.27 C178.56,245.66 176.98,248.88 175.64,250.43 C173.69,252.71 173.37,253.81 174.02,256.09 C174.89,259.09 174.83,260.16 173.62,263.75 C171.78,269.24 169.34,263.82 170.35,256.47 C170.69,253.97 170.53,251.82 169.96,251.47 C169.41,251.14 169.23,250.44 169.54,249.93 C169.86,249.42 169.70,249.00 169.18,249.00 C168.77,249.00 168.36,249.57 167.97,250.55 C168.66,248.22 169.12,246.50 169.03,246.50 C168.52,246.50 174.45,235.29 175.76,233.79 C175.89,233.63 176.03,233.49 176.17,233.37 C177.46,232.50 179.01,232.33 181.64,232.68 ZM 308.55 357.06 C308.31,357.07 308.01,357.08 307.66,357.11 C309.85,356.69 311.52,356.29 312.00,356.04 C313.11,355.48 313.58,353.15 313.79,347.02 L 314.00 341.16 L 314.00 346.67 C314.00,355.47 313.21,356.97 308.55,357.06 ZM 360.83 319.58 C352.43,318.26 343.47,317.92 332.50,318.32 C329.96,318.41 327.76,318.51 325.77,318.63 C337.84,317.51 350.06,317.83 360.83,319.58 ZM 401.86 334.52 C399.00,332.88 393.22,329.96 389.00,328.05 C394.19,330.13 397.99,332.05 401.86,334.52 ZM 176.76 263.21 C176.01,271.58 176.46,281.30 178.12,287.97 C176.36,281.10 175.91,271.63 176.76,263.21 ZM 328.19 205.03 C327.62,204.37 326.89,203.45 326.17,202.50 C320.05,194.37 310.32,185.87 299.89,179.10 C310.32,185.80 319.83,194.12 326.19,202.50 C326.79,203.29 327.51,204.20 328.19,205.03 ZM 190.75 331.88 L 193.00 334.03 C195.15,336.09 197.88,338.48 200.31,340.45 C199.11,339.53 197.91,338.54 196.67,337.48 C194.61,335.73 192.63,333.85 190.75,331.88 ZM 166.03 280.85 C165.21,279.77 164.96,278.12 165.08,273.47 C165.09,277.02 165.37,279.83 166.03,280.85 ZM 308.88 247.09 C309.73,249.33 310.43,251.60 310.99,253.92 C312.13,258.60 312.89,262.31 313.27,265.86 C312.46,259.51 310.79,252.47 308.88,247.09 ZM 169.36 291.86 C168.62,289.11 168.13,286.77 168.02,285.30 C168.17,285.86 168.29,286.44 168.38,287.01 C168.61,288.49 168.95,290.15 169.36,291.86 ZM 299.33 230.27 C301.80,233.57 303.88,236.77 305.60,239.96 C303.61,236.48 301.52,233.25 299.33,230.27 ZM 151.95 335.42 C152.79,336.78 155.40,340.42 158.18,344.13 C158.76,344.90 159.35,345.66 159.94,346.41 C159.36,345.68 158.79,344.94 158.23,344.19 C154.44,339.13 152.48,336.51 151.95,335.42 ZM 278.43 331.09 C279.39,330.68 280.39,330.25 281.42,329.80 C282.19,329.46 283.09,329.09 284.09,328.71 C282.66,329.35 280.64,330.19 278.43,331.09 ZM 183.73 240.01 C182.77,242.05 181.77,244.34 180.85,246.64 C181.85,244.05 182.88,241.63 183.61,240.25 C183.65,240.17 183.69,240.09 183.73,240.01 ZM 391.16 406.59 C391.46,406.68 391.73,406.54 392.09,406.16 C391.80,406.71 391.64,407.00 391.62,407.00 C391.58,407.00 391.41,406.85 391.16,406.59 ZM 311.65 296.92 L 309.70 297.27 L 309.72 297.13 ZM 235.47 339.17 C231.41,338.87 228.89,338.10 223.75,336.25 C218.88,334.51 215.65,333.24 212.80,331.77 C215.65,333.24 218.88,334.51 223.75,336.25 C228.87,338.09 231.47,338.86 235.47,339.17 ZM 312.87 279.98 C312.36,283.67 311.57,287.96 310.50,293.31 C311.58,287.92 312.36,283.58 312.87,279.98 ZM 332.36 210.63 C331.67,209.55 331.00,208.51 330.43,207.69 C330.92,208.33 331.58,209.35 332.36,210.63 ZM 314.00 338.77 L 311.82 339.03 L 314.00 338.74 ZM 387.80 351.05 C387.41,350.81 387.01,350.58 386.59,350.36 C378.66,346.19 375.06,344.31 373.06,344.83 C375.04,344.30 378.63,346.18 386.49,350.31 L 386.73 350.43 C387.09,350.62 387.45,350.83 387.80,351.05 ZM 182.75 367.48 C184.84,368.92 187.00,370.31 189.24,371.66 C187.03,370.34 184.87,368.94 182.75,367.48 ZM 393.30 357.31 C393.27,357.19 393.24,357.08 393.20,356.97 C393.24,357.08 393.27,357.20 393.30,357.31 Z" fill="rgb(223,169,110)"/>
<path d="M 278.43 331.09 C280.64,330.19 282.66,329.35 284.09,328.71 C289.44,326.63 297.62,324.01 303.92,322.38 C307.37,321.49 310.94,320.73 314.56,320.11 C314.07,320.95 315.69,321.29 323.50,322.40 C325.15,322.63 329.88,322.58 334.00,322.29 C338.12,321.99 347.35,321.46 354.50,321.11 C361.10,320.78 364.27,320.60 365.03,320.35 C368.38,321.04 371.55,321.88 374.50,322.87 C380.50,324.88 385.14,326.51 389.00,328.05 C393.22,329.96 399.00,332.88 401.86,334.52 C402.43,334.88 403.00,335.26 403.58,335.65 C403.61,335.69 403.62,335.71 403.60,335.73 C403.40,335.93 400.50,335.18 397.15,334.05 C393.80,332.92 389.90,332.00 388.47,332.00 C386.00,332.00 385.95,332.10 387.44,334.22 C389.49,337.14 389.42,338.99 387.25,339.03 C386.29,339.05 384.67,339.70 383.64,340.47 C381.90,341.79 382.20,342.27 388.39,348.29 C394.81,354.52 396.47,357.97 393.83,359.61 C395.69,358.46 395.19,355.60 392.89,354.16 C390.86,352.89 390.84,352.93 392.31,355.04 C392.73,355.63 393.05,356.34 393.22,357.02 C393.21,357.00 393.21,356.99 393.20,356.97 L 393.20 356.97 C392.52,354.87 390.61,352.77 387.80,351.05 C387.45,350.83 387.09,350.62 386.73,350.43 L 386.49 350.31 C378.63,346.18 375.04,344.30 373.06,344.83 C371.42,345.25 370.86,347.29 369.86,351.00 C369.07,353.94 368.51,356.44 368.17,358.52 C367.89,359.72 367.67,360.68 367.55,361.25 C366.86,364.48 365.71,364.71 363.12,362.12 C362.09,361.09 361.08,359.73 360.87,359.10 C360.62,358.36 358.68,358.92 355.33,360.71 C350.47,363.30 349.92,363.38 345.84,362.15 C343.45,361.43 338.39,360.45 334.59,359.97 C330.80,359.48 327.28,358.68 326.78,358.18 C325.82,357.22 327.31,336.93 328.47,335.04 C328.83,334.47 329.97,334.00 331.02,334.00 C333.53,334.00 338.29,328.89 336.99,327.59 C335.36,325.96 301.17,326.09 296.50,327.75 C294.30,328.53 290.39,329.55 287.82,330.01 C285.24,330.48 282.19,331.36 281.04,331.98 C277.90,333.66 264.19,338.01 262.22,337.95 C261.54,337.93 263.02,337.15 265.73,336.03 C269.38,334.83 273.46,333.22 278.43,331.09 ZM 332.36 216.54 C331.21,215.74 329.71,213.71 329.02,212.04 C328.32,210.37 327.47,208.94 327.13,208.87 C326.78,208.80 325.60,208.62 324.50,208.46 C317.98,207.53 310.48,205.59 303.01,202.91 C293.24,199.41 281.92,197.00 275.16,196.99 C269.81,196.99 264.24,195.63 261.56,193.67 C259.79,192.38 259.86,192.05 263.00,186.15 C264.81,182.75 268.05,178.29 270.19,176.24 C273.38,173.19 274.00,171.99 273.57,169.75 C273.08,167.16 273.20,166.62 276.36,167.61 C276.71,167.73 277.09,167.86 277.49,168.00 C278.59,168.37 279.69,168.78 280.80,169.21 C280.59,169.19 280.46,169.21 280.39,169.28 C280.16,169.50 281.79,170.50 283.99,171.50 C288.01,173.31 290.85,177.17 290.24,180.00 C290.06,180.82 288.56,182.18 286.90,183.00 C285.24,183.82 282.92,186.19 281.74,188.26 C279.82,191.62 279.76,192.18 281.11,193.54 C282.47,194.90 285.30,195.54 298.50,197.46 C300.70,197.78 303.34,198.31 304.37,198.63 C306.87,199.41 308.22,197.08 306.36,195.22 C305.56,194.41 305.04,193.07 305.20,192.22 C305.71,189.60 309.23,189.99 312.72,193.06 C314.56,194.68 316.64,196.00 317.33,196.00 C318.03,196.00 320.35,197.80 322.50,200.00 C326.91,204.51 327.84,205.05 325.55,201.75 C325.39,201.52 325.22,201.28 325.03,201.03 C325.42,201.52 325.81,202.01 326.17,202.50 C326.89,203.45 327.62,204.37 328.19,205.03 C328.92,205.94 329.62,206.77 330.08,207.28 C330.19,207.39 330.30,207.53 330.43,207.69 C331.00,208.51 331.67,209.55 332.36,210.63 C333.40,212.36 334.65,214.56 335.94,216.96 C335.98,217.07 336.00,217.14 336.00,217.20 C336.00,218.41 334.69,218.17 332.36,216.54 ZM 176.76 263.21 C175.91,271.63 176.36,281.10 178.12,287.97 C178.32,288.78 178.54,289.55 178.78,290.26 C183.44,304.25 192.02,316.76 202.47,324.84 C206.70,328.11 209.50,330.07 212.80,331.77 L 212.87 331.81 C215.70,333.26 218.92,334.52 223.75,336.25 C228.89,338.10 231.41,338.87 235.47,339.17 C237.68,339.33 240.32,339.36 244.04,339.35 C244.84,339.34 245.62,339.33 246.37,339.32 C252.36,339.31 256.82,339.51 256.55,339.78 C255.81,340.52 239.22,342.97 235.50,342.89 C233.85,342.86 230.24,342.28 227.47,341.61 C224.70,340.94 221.10,339.46 219.47,338.33 C217.84,337.20 213.80,334.54 210.50,332.43 C207.20,330.31 203.63,327.78 202.57,326.80 C201.51,325.82 199.83,324.76 198.82,324.44 C197.82,324.13 197.00,323.43 197.00,322.91 C197.00,322.38 195.87,321.52 194.49,321.00 C193.11,320.47 191.42,318.79 190.75,317.27 C190.08,315.75 188.92,313.87 188.17,313.09 C186.02,310.84 182.00,304.15 182.00,302.82 C182.00,302.16 180.87,300.43 179.48,298.98 C177.92,297.35 176.82,294.86 176.57,292.43 C176.02,286.96 174.98,283.01 173.18,279.50 L 171.64 276.50 L 170.92 279.00 C169.58,283.67 170.02,291.45 171.86,295.50 C174.31,300.93 175.26,305.00 174.06,305.00 C173.87,305.00 173.62,304.68 173.31,304.10 C171.79,300.07 170.35,295.59 169.36,291.86 C168.95,290.15 168.61,288.49 168.38,287.01 C168.29,286.44 168.17,285.86 168.02,285.30 C168.01,285.10 168.00,284.91 168.00,284.74 C168.00,283.95 167.57,282.84 166.97,281.96 C167.41,281.96 167.70,281.38 167.49,280.25 C167.30,279.29 167.07,273.77 166.98,268.00 C166.87,261.48 166.56,258.67 166.08,259.77 C166.51,256.50 167.03,253.62 167.53,252.00 C167.68,251.50 167.83,251.01 167.97,250.55 C168.36,249.57 168.77,249.00 169.18,249.00 C169.70,249.00 169.86,249.42 169.54,249.93 C169.23,250.44 169.41,251.14 169.96,251.47 C170.53,251.82 170.69,253.97 170.35,256.47 C169.34,263.82 171.78,269.24 173.62,263.75 C174.83,260.16 174.89,259.09 174.02,256.09 C173.37,253.81 173.69,252.71 175.64,250.43 C176.98,248.88 178.56,245.66 179.16,243.27 C180.11,239.49 182.99,236.00 185.14,236.00 C185.42,236.00 185.14,236.99 184.50,238.42 C184.25,238.93 183.99,239.46 183.73,240.01 L 183.73 240.01 C183.69,240.09 183.65,240.17 183.61,240.25 C182.88,241.63 181.85,244.05 180.85,246.64 C180.13,248.45 179.45,250.27 178.86,252.00 C177.84,254.99 177.14,258.92 176.76,263.21 ZM 354.76 351.03 C356.04,346.93 356.96,342.43 356.80,341.03 C356.54,338.81 355.90,338.42 351.50,337.84 C342.55,336.65 330.97,336.88 330.55,338.25 C330.34,338.94 329.89,343.22 329.56,347.77 C329.51,348.45 329.46,349.08 329.41,349.65 C329.15,352.87 329.01,354.59 329.79,355.60 C330.82,356.94 333.44,357.05 339.50,357.77 C339.96,357.83 340.40,357.88 340.82,357.93 C347.29,358.71 350.08,359.05 351.70,357.83 C353.04,356.83 353.59,354.77 354.76,351.03 ZM 298.10 228.65 C296.86,227.05 295.58,225.52 294.27,224.06 C293.61,223.30 292.93,222.54 292.23,221.77 C289.10,218.32 287.51,216.33 288.70,217.35 C289.90,218.36 291.29,218.94 291.80,218.62 C292.31,218.31 293.58,218.99 294.62,220.13 C295.65,221.28 299.64,224.26 303.49,226.74 C313.10,232.96 317.48,237.97 322.57,248.53 C328.43,260.69 330.92,274.02 329.20,284.01 C327.92,291.50 328.32,293.93 330.86,294.12 C332.52,294.25 327.06,295.13 318.83,296.11 C320.87,295.84 322.85,295.58 324.06,295.40 L 327.61 294.89 L 327.83 281.69 C328.07,267.41 326.98,261.32 322.84,253.80 C321.10,250.63 319.77,249.42 317.80,249.19 C315.00,248.86 308.74,243.69 307.73,240.86 C307.03,238.90 298.33,227.32 296.89,226.43 C296.51,226.20 297.03,227.12 298.10,228.65 ZM 151.95 335.42 C151.78,335.08 151.75,334.89 151.85,334.82 C152.03,335.03 152.30,335.37 152.63,335.81 C153.56,337.09 158.44,340.55 163.46,343.50 C168.49,346.46 176.17,352.08 180.55,356.00 C184.92,359.91 190.31,364.51 192.52,366.22 C194.74,367.93 198.11,371.28 200.02,373.66 C201.93,376.05 204.03,378.00 204.69,378.00 C205.34,378.00 206.16,378.45 206.50,379.00 C206.92,379.67 206.79,379.98 206.11,379.92 C202.31,378.46 198.56,376.75 194.89,374.82 C194.61,373.33 184.25,359.98 181.71,357.99 C180.38,356.94 176.87,355.13 173.90,353.96 C170.93,352.80 167.71,351.13 166.75,350.27 C165.79,349.40 165.00,349.00 165.00,349.38 C165.00,349.76 163.99,349.58 162.75,348.98 C161.51,348.38 164.05,351.32 168.38,355.50 C172.09,359.08 176.12,362.54 180.11,365.60 C172.47,359.98 165.59,353.47 159.94,346.41 L 159.94 346.40 C159.34,345.65 158.76,344.89 158.18,344.13 C155.40,340.42 152.79,336.78 151.95,335.42 ZM 285.00 379.66 C284.85,379.71 284.71,379.76 284.56,379.81 C283.70,380.06 282.85,380.32 282.03,380.58 C273.57,383.32 268.33,383.86 273.95,381.42 C275.85,380.60 279.45,379.46 281.95,378.88 C284.45,378.30 287.40,377.46 288.50,377.00 C295.17,374.21 307.46,372.13 318.50,371.92 C333.69,371.64 336.25,371.78 335.56,372.91 C335.25,373.41 335.90,373.58 337.01,373.29 C339.00,372.77 351.49,376.85 350.60,377.73 C350.35,377.98 346.91,377.46 342.95,376.56 C336.05,374.99 326.97,374.45 317.44,374.82 C305.62,375.08 293.75,376.73 285.00,379.66 ZM 302.50 357.99 C304.32,357.72 306.12,357.41 307.66,357.11 C308.01,357.08 308.31,357.07 308.55,357.06 C313.21,356.97 314.00,355.47 314.00,346.67 L 314.00 341.16 L 314.08 338.76 L 314.00 338.77 L 314.00 338.74 L 311.82 339.03 L 308.29 339.45 C308.09,339.47 307.89,339.50 307.68,339.52 C305.59,339.65 305.75,339.11 307.46,337.40 C308.38,336.48 309.83,336.17 311.42,336.57 C313.87,337.18 317.09,339.99 315.37,340.02 C314.89,340.02 315.11,340.42 315.85,340.89 C316.92,341.56 316.96,342.21 316.04,343.92 C315.17,345.56 315.16,346.95 316.01,349.53 C316.63,351.42 316.87,353.82 316.54,354.86 C315.66,357.66 308.53,359.79 300.00,359.81 L 292.50 359.82 L 298.01 358.68 C299.46,358.45 301.01,358.21 302.50,357.99 ZM 190.75 331.88 C190.16,331.27 189.59,330.65 189.02,330.02 L 193.45 333.87 C197.27,337.20 201.59,340.19 203.06,340.51 C205.63,341.08 212.35,347.00 210.42,347.00 C210.42,347.00 210.41,347.00 210.40,347.00 C206.88,345.13 203.63,343.02 200.31,340.45 L 200.31 340.45 C197.88,338.48 195.15,336.09 193.00,334.03 ZM 391.16 406.59 C390.82,406.22 390.30,405.63 389.70,404.91 C389.52,404.28 390.05,403.84 391.51,403.18 C392.80,402.59 393.58,402.44 393.84,402.74 C393.07,404.26 392.47,405.44 392.09,406.16 C391.73,406.54 391.46,406.68 391.16,406.59 ZM 181.35 320.04 C179.85,317.74 178.46,315.37 177.21,312.96 L 179.47 315.12 C180.97,316.56 182.04,318.53 181.85,319.50 C181.76,319.94 181.60,320.13 181.35,320.04 ZM 354.71 318.80 C346.31,318.42 333.79,318.40 325.03,318.70 C325.28,318.68 325.52,318.66 325.77,318.63 C327.76,318.51 329.96,318.41 332.50,318.32 C340.85,318.02 348.04,318.14 354.71,318.80 ZM 321.22 196.65 C317.90,193.19 313.51,189.20 309.18,185.73 C313.62,189.21 317.72,192.92 321.22,196.65 ZM 310.78 253.07 C311.47,255.54 312.04,258.12 312.51,260.83 C312.12,258.73 311.61,256.47 310.99,253.92 C310.92,253.64 310.85,253.35 310.78,253.07 ZM 300.02 179.18 C297.57,177.63 294.95,176.08 292.43,174.67 C294.95,176.04 297.45,177.52 299.89,179.10 ZM 165.10 272.98 C165.10,274.07 165.11,275.11 165.15,276.06 C165.11,275.26 165.09,274.39 165.08,273.47 C165.09,273.31 165.09,273.15 165.10,272.98 ZM 312.87 279.98 C313.13,278.11 313.32,276.44 313.45,274.92 C313.31,276.58 313.10,278.42 312.79,280.51 C312.82,280.33 312.84,280.16 312.87,279.98 Z" fill="rgb(227,178,134)"/>
<path d="M 308.88 247.09 C308.09,244.86 307.25,242.92 306.43,241.42 C306.16,240.93 305.88,240.44 305.60,239.96 C303.88,236.77 301.80,233.57 299.33,230.27 C298.92,229.73 298.51,229.19 298.10,228.65 C297.03,227.12 296.51,226.20 296.89,226.43 C298.33,227.32 307.03,238.90 307.73,240.86 C308.74,243.69 315.00,248.86 317.80,249.19 C319.77,249.42 321.10,250.63 322.84,253.80 C326.98,261.32 328.07,267.41 327.83,281.69 L 327.61 294.89 L 324.06 295.40 C322.85,295.58 320.87,295.84 318.83,296.11 L 318.83 296.11 L 318.74 296.11 C315.96,296.31 313.90,296.50 313.10,296.65 L 311.65 296.92 L 309.72 297.13 L 310.38 293.89 C310.42,293.69 310.46,293.50 310.50,293.31 C310.50,293.31 310.50,293.30 310.50,293.30 C311.52,288.20 312.29,284.08 312.79,280.51 C313.10,278.42 313.31,276.58 313.45,274.92 C313.69,271.98 313.68,269.62 313.46,267.50 C313.41,266.96 313.34,266.41 313.27,265.86 C313.10,264.24 312.85,262.59 312.51,260.83 C312.04,258.12 311.47,255.54 310.78,253.07 C310.25,251.04 309.62,249.05 308.88,247.09 ZM 321.22 196.65 C322.59,198.11 323.87,199.58 325.03,201.03 C325.22,201.28 325.39,201.52 325.55,201.75 C327.84,205.05 326.91,204.51 322.50,200.00 C320.35,197.80 318.03,196.00 317.33,196.00 C316.64,196.00 314.56,194.68 312.72,193.06 C309.23,189.99 305.71,189.60 305.20,192.22 C305.04,193.07 305.56,194.41 306.36,195.22 C308.22,197.08 306.87,199.41 304.37,198.63 C303.34,198.31 300.70,197.78 298.50,197.46 C285.30,195.54 282.47,194.90 281.11,193.54 C279.76,192.18 279.82,191.62 281.74,188.26 C282.92,186.19 285.24,183.82 286.90,183.00 C288.56,182.18 290.06,180.82 290.24,180.00 C290.85,177.17 288.01,173.31 283.99,171.50 C281.79,170.50 280.16,169.50 280.39,169.28 C280.46,169.21 280.59,169.19 280.80,169.21 C284.66,170.73 288.57,172.57 292.43,174.67 C294.95,176.08 297.57,177.63 300.02,179.18 C303.16,181.22 306.25,183.43 309.18,185.73 C313.51,189.20 317.90,193.19 321.22,196.65 ZM 182.75 367.48 C181.86,366.86 180.98,366.23 180.11,365.60 C176.12,362.54 172.09,359.08 168.38,355.50 C164.05,351.32 161.51,348.38 162.75,348.98 C163.99,349.58 165.00,349.76 165.00,349.38 C165.00,349.00 165.79,349.40 166.75,350.27 C167.71,351.13 170.93,352.80 173.90,353.96 C176.87,355.13 180.38,356.94 181.71,357.99 C184.25,359.98 194.61,373.33 194.89,374.82 C192.98,373.82 191.09,372.77 189.24,371.66 L 189.23 371.65 C187.00,370.31 184.84,368.92 182.75,367.48 ZM 354.71 318.80 C356.79,319.01 358.83,319.27 360.83,319.58 L 360.83 319.58 C362.26,319.81 363.66,320.07 365.03,320.35 C364.27,320.60 361.10,320.78 354.50,321.11 C347.35,321.46 338.12,321.99 334.00,322.29 C329.88,322.58 325.15,322.63 323.50,322.40 C315.69,321.29 314.07,320.95 314.56,320.11 C318.01,319.52 321.52,319.05 325.03,318.70 C333.79,318.40 346.31,318.42 354.71,318.80 ZM 165.37 267.14 C165.52,264.71 165.78,262.14 166.08,259.77 C166.56,258.67 166.87,261.48 166.98,268.00 C167.01,269.91 167.06,271.79 167.11,273.49 C166.72,267.74 165.86,265.30 165.37,267.14 ZM 166.88 281.83 C167.16,281.35 167.30,279.95 167.28,277.70 C167.35,278.99 167.42,279.91 167.49,280.25 C167.70,281.38 167.41,281.96 166.97,281.96 C166.94,281.92 166.91,281.87 166.88,281.83 Z" fill="rgb(232,194,158)"/>
<path d="M 166.03 280.85 C165.55,280.09 165.26,278.35 165.15,276.06 C165.11,275.11 165.10,274.07 165.10,272.98 C165.14,271.72 165.20,270.26 165.29,268.55 C165.31,268.09 165.33,267.62 165.37,267.14 C165.86,265.30 166.72,267.74 167.11,273.49 C167.16,275.10 167.22,276.55 167.28,277.70 C167.30,279.95 167.16,281.35 166.88,281.83 C166.72,281.61 166.55,281.40 166.37,281.23 C166.25,281.11 166.14,280.98 166.03,280.85 ZM 393.30 357.31 C393.30,357.30 393.29,357.29 393.29,357.28 C393.27,357.19 393.25,357.10 393.22,357.02 C393.05,356.34 392.73,355.63 392.31,355.04 C390.84,352.93 390.86,352.89 392.89,354.16 C395.19,355.60 395.69,358.46 393.83,359.61 C393.55,359.78 393.34,359.85 393.21,359.82 C393.40,359.12 393.49,358.57 393.46,358.23 C393.43,357.92 393.38,357.61 393.30,357.31 ZM 422.86 0.00 L 500.00 0.00 L 500.00 0.01 L 250.01 0.02 L 0.02 0.03 L 0.02 0.01 L 250.01 0.01 ZM 0.02 250.01 L 0.02 500.00 L 0.01 500.00 L 0.02 250.01 L 0.02 79.65 Z" fill="rgb(239,221,203)"/>
<path d="M 0.02 250.01 L 0.02 0.03 L 250.01 0.02 L 500.00 0.01 L 500.00 250.01 L 500.00 500.00 L 250.01 500.00 L 0.02 500.00 L 0.02 250.01 ZM 394.32 406.20 C396.04,404.29 407.00,382.68 407.00,381.18 C407.00,380.70 407.86,379.53 408.92,378.57 C409.98,377.62 411.39,374.54 412.06,371.74 C412.76,368.83 415.38,363.56 418.14,359.48 C420.81,355.54 423.00,351.29 423.00,350.03 C423.00,347.46 417.28,341.47 409.58,336.00 C402.76,331.15 402.83,331.19 399.72,330.53 C398.19,330.21 396.18,329.06 395.25,327.98 C394.32,326.89 392.00,325.72 390.10,325.36 C388.20,325.00 383.91,323.61 380.57,322.27 C370.77,318.32 352.96,315.07 340.94,315.03 C324.35,314.98 306.68,317.64 297.22,321.62 C295.41,322.38 293.16,323.00 292.22,323.00 C290.11,323.01 280.19,326.99 276.90,329.15 C275.57,330.01 272.92,330.97 271.00,331.28 C269.07,331.58 264.80,332.81 261.50,334.02 C256.10,335.99 254.04,336.17 241.00,335.81 C227.07,335.42 226.21,335.27 219.25,332.05 C215.26,330.21 212.00,328.41 212.00,328.06 C212.00,327.71 209.57,326.19 206.60,324.68 C203.63,323.18 200.52,320.95 199.70,319.72 C198.88,318.50 196.56,315.70 194.55,313.50 C186.36,304.54 180.00,292.58 180.00,286.12 C180.00,283.92 179.60,281.87 179.12,281.57 C177.38,280.50 176.83,268.71 178.32,264.49 C179.10,262.28 180.08,258.45 180.48,255.99 C181.21,251.60 183.63,245.15 186.54,239.85 C187.34,238.39 188.00,236.59 188.00,235.86 C188.00,235.13 190.36,232.20 193.25,229.34 C196.14,226.48 199.40,223.20 200.50,222.05 C208.43,213.75 217.30,209.04 231.00,205.87 C242.98,203.10 249.00,202.44 249.00,203.90 C249.00,204.54 250.92,205.00 253.59,205.00 C258.38,205.00 273.00,209.62 273.00,211.13 C273.00,211.61 273.48,212.00 274.07,212.00 C274.66,212.00 277.10,213.35 279.50,215.00 C281.90,216.65 284.30,218.00 284.83,218.00 C285.36,218.00 287.23,219.69 288.98,221.75 C290.74,223.81 293.71,227.18 295.59,229.24 C297.46,231.29 299.00,233.36 299.00,233.84 C299.00,234.31 300.29,236.05 301.86,237.70 C303.43,239.34 305.04,242.39 305.43,244.48 C305.82,246.57 306.96,249.45 307.97,250.89 C309.69,253.35 311.29,263.80 311.35,273.00 C311.38,276.84 309.83,285.13 307.86,291.74 C306.95,294.79 306.89,296.29 307.67,297.07 C308.43,297.83 313.61,297.91 324.94,297.33 C333.84,296.87 342.05,296.84 343.18,297.26 C345.48,298.11 351.40,295.01 352.39,292.44 C352.71,291.60 353.02,283.17 353.08,273.71 C353.19,257.32 352.07,247.78 349.88,246.42 C349.39,246.13 349.00,244.52 349.00,242.86 C349.00,241.19 347.65,236.46 346.00,232.34 C344.35,228.22 343.00,224.24 343.00,223.49 C343.00,222.74 341.19,220.03 338.97,217.47 C336.76,214.91 334.03,211.03 332.92,208.84 C331.80,206.65 327.95,201.85 324.35,198.18 C320.76,194.51 317.21,190.35 316.48,188.93 C315.74,187.52 312.07,184.41 308.32,182.02 C304.57,179.63 299.64,176.45 297.36,174.95 C293.09,172.13 279.18,165.96 273.00,164.15 C249.88,157.35 219.52,159.54 199.14,169.49 C196.19,170.93 193.54,171.88 193.26,171.59 C192.97,171.30 191.61,171.95 190.23,173.03 C188.86,174.11 187.14,175.00 186.42,175.00 C185.70,175.00 184.46,175.93 183.66,177.07 C182.24,179.10 172.31,186.00 170.80,186.00 C169.69,186.00 163.00,192.66 163.55,193.22 C163.81,193.47 161.76,195.62 159.01,197.99 C156.25,200.37 154.00,203.05 154.00,203.96 C154.00,205.34 148.91,213.34 146.98,215.00 C143.75,217.77 133.00,243.49 133.00,248.45 C133.00,249.93 132.53,252.00 131.96,253.07 C130.80,255.24 130.48,283.09 131.52,290.68 C131.88,293.33 133.04,297.88 134.09,300.79 C135.14,303.70 136.00,306.93 136.00,307.97 C136.00,310.29 137.25,313.24 140.47,318.50 C141.81,320.70 142.93,323.45 142.96,324.60 C143.00,326.84 147.19,332.00 148.95,332.00 C149.53,332.00 149.92,332.34 149.82,332.75 C149.72,333.16 150.27,335.52 151.04,338.00 C152.18,341.63 154.90,344.92 165.10,355.00 C172.05,361.88 179.04,368.27 180.62,369.22 C182.20,370.17 186.30,372.72 189.73,374.90 C193.15,377.07 196.98,379.16 198.23,379.53 C199.48,379.90 202.47,381.29 204.88,382.60 C207.28,383.92 210.21,385.02 211.38,385.04 C212.54,385.07 215.30,385.78 217.50,386.62 C220.47,387.76 226.74,388.26 241.78,388.55 C260.17,388.91 262.54,388.76 267.07,386.97 C269.82,385.89 273.09,385.00 274.33,385.00 C275.56,385.00 278.29,384.13 280.38,383.06 C282.47,381.99 286.73,380.83 289.84,380.47 C292.95,380.12 297.08,379.39 299.00,378.85 C309.80,375.82 334.17,376.15 343.00,379.44 C344.92,380.15 348.63,381.05 351.24,381.43 C354.16,381.85 357.99,383.48 361.24,385.69 C364.13,387.65 367.85,389.65 369.50,390.12 C371.98,390.84 379.57,397.63 387.53,406.25 C389.60,408.50 392.26,408.48 394.32,406.20 ZM 158.49 372.01 C158.78,371.54 158.00,370.34 156.75,369.33 C155.51,368.32 153.62,366.15 152.56,364.50 C151.50,362.85 150.01,360.87 149.25,360.11 C148.49,359.35 147.20,357.71 146.39,356.47 C145.01,354.36 144.10,354.20 131.21,353.83 L 117.50 353.43 L 110.40 349.26 C103.31,345.09 99.88,341.58 96.49,335.00 C92.12,326.52 92.02,324.76 92.04,254.50 C92.05,191.61 92.16,187.16 93.93,181.89 C96.80,173.30 98.43,170.72 104.45,165.22 C114.41,156.12 116.63,155.65 151.50,155.31 C187.75,154.96 185.46,155.07 191.07,153.36 C197.30,151.45 201.48,146.76 209.51,132.68 C217.78,118.18 220.10,115.34 224.81,114.03 C229.58,112.71 285.31,112.68 290.06,114.00 C292.01,114.54 294.76,116.23 296.17,117.74 C298.47,120.23 305.22,131.48 310.25,141.21 C312.61,145.78 318.99,151.66 323.86,153.77 C326.74,155.01 330.76,155.29 343.20,155.12 C366.96,154.78 376.14,157.09 384.57,165.51 C386.83,167.78 389.99,172.30 391.59,175.57 L 394.50 181.50 L 395.00 241.00 L 395.50 300.50 L 403.90 304.80 C408.52,307.16 412.87,308.88 413.57,308.61 C415.17,308.00 415.52,194.00 413.96,184.50 C412.42,175.20 409.99,167.90 406.86,163.20 C405.29,160.83 404.00,158.54 404.00,158.11 C404.00,155.80 390.80,144.98 384.00,141.71 C374.44,137.12 367.34,136.02 347.42,136.01 C328.61,136.00 330.01,136.73 322.46,123.00 C313.13,106.06 309.67,101.65 303.30,98.60 C300.11,97.07 296.72,95.41 295.76,94.91 C294.81,94.41 277.90,94.00 258.19,94.00 L 222.34 94.00 L 215.92 96.59 C212.39,98.01 208.01,100.60 206.18,102.34 C204.36,104.08 199.19,111.96 194.70,119.86 C189.15,129.63 185.79,134.51 184.20,135.11 C181.52,136.13 153.67,136.33 152.67,135.34 C152.31,134.97 153.13,133.20 154.50,131.40 C157.11,127.99 157.74,123.25 156.02,120.04 C154.48,117.15 149.50,116.00 138.60,116.01 C125.71,116.01 121.49,117.15 119.42,121.15 C117.39,125.09 118.24,128.42 122.21,132.04 L 125.33 134.89 L 122.91 135.83 C121.59,136.35 118.03,137.33 115.00,138.01 C95.04,142.49 78.85,159.59 74.45,180.84 C73.16,187.08 72.98,198.77 73.22,258.84 L 73.50 329.50 L 75.90 336.00 C82.01,352.56 92.83,363.60 109.84,370.64 C115.19,372.85 116.67,372.98 136.73,372.92 C148.41,372.89 158.20,372.48 158.49,372.01 ZM 242.76 301.25 C244.82,299.50 247.29,298.05 248.26,298.03 C249.24,298.01 250.85,296.65 251.85,295.00 C252.85,293.36 253.99,292.32 254.37,292.70 C256.10,294.44 258.48,293.51 262.74,289.42 C265.28,286.99 268.06,284.99 268.93,284.98 C271.94,284.93 280.42,279.48 282.18,276.45 C285.52,270.70 285.48,266.51 282.06,261.44 C280.38,258.94 279.00,256.64 279.00,256.32 C279.00,254.84 273.42,251.17 270.44,250.68 C266.90,250.11 257.81,244.69 251.84,239.59 C249.83,237.88 246.52,235.87 244.49,235.13 C242.45,234.39 239.19,232.71 237.25,231.40 C232.86,228.41 231.39,228.41 224.70,231.37 C216.53,234.98 216.46,235.33 216.74,268.29 C216.98,296.53 217.14,297.85 221.07,302.37 C222.76,304.30 223.94,304.56 231.01,304.50 C238.53,304.44 239.26,304.24 242.76,301.25 ZM 380.13 368.46 C378.53,367.11 376.57,366.00 375.79,366.00 C373.90,366.00 370.32,362.57 369.49,359.96 C369.08,358.69 369.39,357.20 370.28,356.18 C371.08,355.26 372.17,353.15 372.70,351.50 C373.96,347.58 375.96,347.32 380.91,350.44 C383.14,351.85 385.80,353.00 386.82,353.00 C388.61,353.00 391.00,356.67 391.00,359.42 C391.00,361.50 386.10,369.75 384.49,370.36 C383.70,370.67 381.74,369.81 380.13,368.46 ZM 229.50 362.97 C225.10,361.40 220.54,360.09 219.37,360.06 C218.20,360.03 216.63,359.25 215.87,358.34 C215.12,357.43 211.95,355.48 208.84,354.00 C202.60,351.05 194.00,344.22 194.00,342.23 C194.00,341.53 192.89,340.45 191.52,339.83 C189.81,339.05 189.11,337.99 189.24,336.39 C189.42,334.24 189.55,334.19 191.21,335.69 C192.20,336.58 193.00,337.84 193.00,338.50 C193.00,339.15 194.69,340.54 196.75,341.58 C198.81,342.62 201.62,344.41 203.00,345.55 C206.59,348.52 220.55,354.74 227.00,356.23 C235.32,358.15 254.77,357.74 261.34,355.51 C264.30,354.50 267.41,353.94 268.24,354.26 C269.76,354.84 271.10,361.25 270.05,362.89 C269.11,364.36 253.81,365.84 248.00,365.02 C244.98,364.60 241.74,364.64 240.82,365.13 C238.63,366.26 238.83,366.30 229.50,362.97 ZM 293.25 355.37 C292.53,355.06 292.00,353.02 292.00,350.52 C292.00,346.18 293.02,345.00 296.75,345.00 C297.63,345.00 299.05,344.37 299.92,343.61 C301.80,341.95 309.58,340.51 310.29,341.68 C310.57,342.13 310.95,344.47 311.15,346.88 C311.45,350.63 311.14,351.52 309.00,353.06 C306.52,354.84 295.70,356.43 293.25,355.37 ZM 345.89 355.56 C345.65,355.32 343.11,355.01 340.25,354.88 C333.62,354.58 333.05,354.18 331.90,349.04 C331.11,345.53 331.27,344.23 332.79,341.64 C334.82,338.19 336.28,337.99 346.77,339.76 C353.68,340.92 354.76,342.02 353.20,346.32 C352.54,348.15 352.00,350.53 352.00,351.62 C352.00,352.71 351.46,354.14 350.80,354.80 C349.62,355.98 346.76,356.42 345.89,355.56 Z" fill="rgb(253,246,238)"/>
<path d="M 0.00 439.43 C0.00,388.28 0.21,379.07 1.36,380.22 C2.11,380.97 2.73,383.47 2.73,385.77 C2.73,389.82 4.31,397.39 6.02,401.50 C6.47,402.60 7.61,405.75 8.54,408.50 C10.65,414.76 17.79,429.16 19.44,430.50 C20.12,431.05 20.51,432.00 20.30,432.62 C19.63,434.60 24.32,441.30 30.89,447.74 C34.41,451.18 36.89,454.00 36.42,454.00 C35.95,454.00 38.47,456.97 42.03,460.61 C48.98,467.71 59.58,476.00 61.70,476.00 C62.42,476.00 63.00,476.42 63.00,476.93 C63.00,477.71 65.56,479.43 75.00,484.94 C81.36,488.66 108.59,497.37 119.00,499.02 C121.47,499.41 95.71,499.79 61.75,499.87 L 0.00 500.00 L 0.00 439.43 ZM 379.00 499.00 C379.00,498.45 380.46,497.98 382.25,497.96 C385.86,497.93 398.34,494.67 397.62,493.96 C397.38,493.71 398.82,493.44 400.84,493.37 C404.83,493.23 421.52,487.06 425.82,484.13 C431.22,480.47 440.53,474.49 441.43,474.11 C442.91,473.48 451.13,467.10 455.56,463.13 C460.57,458.65 476.00,440.37 476.00,438.93 C476.00,438.34 477.19,436.31 478.64,434.40 C485.66,425.20 491.90,410.17 496.11,392.35 C497.42,386.77 498.83,382.72 499.23,383.35 C499.64,383.98 499.98,410.49 499.98,442.25 L 500.00 500.00 L 439.50 500.00 C399.83,500.00 379.00,499.66 379.00,499.00 ZM 498.61 118.75 C496.65,108.46 492.55,92.99 490.70,88.92 C489.85,87.04 487.62,82.12 485.75,78.00 C483.88,73.88 479.69,66.45 476.44,61.50 C467.83,48.38 445.50,26.60 435.45,21.50 C433.28,20.40 431.27,19.27 431.00,19.00 C429.75,17.75 411.03,9.14 407.00,7.96 C404.52,7.24 401.78,6.04 400.90,5.30 C400.02,4.57 397.24,3.79 394.72,3.58 C388.19,3.03 384.00,1.99 384.00,0.92 C384.00,0.37 407.34,0.00 442.00,0.00 L 500.00 0.00 L 500.00 60.50 C500.00,93.78 499.78,121.00 499.52,121.00 C499.25,121.00 498.85,119.99 498.61,118.75 ZM 0.75 115.42 C0.34,115.01 -0.00,88.87 -0.00,57.33 L 0.00 0.00 L 58.58 0.00 C102.02,0.00 117.07,0.30 116.79,1.14 C116.58,1.77 114.89,2.45 113.04,2.65 C111.20,2.85 109.16,3.45 108.52,3.99 C107.78,4.60 107.00,4.60 106.40,4.00 C105.79,3.39 101.81,4.48 95.47,6.99 C89.99,9.17 84.93,10.96 84.23,10.97 C82.12,11.02 59.61,24.34 54.52,28.56 C46.65,35.08 25.00,57.16 25.00,58.66 C25.00,58.97 22.84,62.88 20.20,67.36 C14.03,77.82 12.95,80.05 12.74,82.77 C12.65,84.00 12.29,85.00 11.94,85.00 C10.66,85.00 2.97,107.27 1.80,114.34 C1.64,115.35 1.16,115.84 0.75,115.42 Z" fill="rgb(254,254,254)"/>
</g>
</svg>